{
    "asset" : {
        "generator" : "Khronos glTF Blender I/O v1.7.33",
        "version" : "2.0"
    },
    "scene" : 0,
    "scenes" : [
        {
            "name" : "Scene",
            "nodes" : [
                0,
                1
            ]
        }
    ],
    "nodes" : [
        {
            "mesh" : 0,
            "name" : "Cube",
            "translation" : [
                4.098417282104492,
                64.82185363769531,
                -22.35466766357422
            ]
        },
        {
            "mesh" : 1,
            "name" : "Cube.001",
            "translation" : [
                45.13355255126953,
                64.82185363769531,
                -22.35466766357422
            ]
        }
    ],
    "materials" : [
        {
            "doubleSided" : true,
            "name" : "Material.003",
            "pbrMetallicRoughness" : {
                "baseColorFactor": [ 1.000, 0.766, 0.336, 1.0 ],
                "metallicFactor": 2.0,
                "roughnessFactor": 0.0
            }
        },
        {
            "doubleSided" : true,
            "name" : "Material.002",
            "pbrMetallicRoughness" : {
                "baseColorFactor": [ 0.000, 1.0, 0.736, 1.0 ],
                "metallicFactor": 0.5,
                "roughnessFactor": 0.0
            }
        }
    ],
    "meshes" : [
        {
            "name" : "Cube.003",
            "primitives" : [
                {
                    "attributes" : {
                        "POSITION" : 0,
                        "NORMAL" : 1,
                        "TEXCOORD_0" : 2
                    },
                    "indices" : 3,
                    "material" : 0
                }
            ]
        },
        {
            "name" : "Cube.006",
            "primitives" : [
                {
                    "attributes" : {
                        "POSITION" : 4,
                        "NORMAL" : 5,
                        "TEXCOORD_0" : 6
                    },
                    "indices" : 7,
                    "material" : 1
                }
            ]
        }
    ],
    "accessors" : [
        {
            "bufferView" : 0,
            "componentType" : 5126,
            "count" : 1650,
            "max" : [
                15.652761459350586,
                16.443336486816406,
                15.384653091430664
            ],
            "min" : [
                -16.729331970214844,
                -16.514169692993164,
                -15.878334999084473
            ],
            "type" : "VEC3"
        },
        {
            "bufferView" : 1,
            "componentType" : 5126,
            "count" : 1650,
            "type" : "VEC3"
        },
        {
            "bufferView" : 2,
            "componentType" : 5126,
            "count" : 1650,
            "type" : "VEC2"
        },
        {
            "bufferView" : 3,
            "componentType" : 5123,
            "count" : 9216,
            "type" : "SCALAR"
        },
        {
            "bufferView" : 4,
            "componentType" : 5126,
            "count" : 1650,
            "max" : [
                18.213138580322266,
                17.123706817626953,
                16.729331970214844
            ],
            "min" : [
                -18.290355682373047,
                -16.514171600341797,
                -18.29035758972168
            ],
            "type" : "VEC3"
        },
        {
            "bufferView" : 5,
            "componentType" : 5126,
            "count" : 1650,
            "type" : "VEC3"
        },
        {
            "bufferView" : 6,
            "componentType" : 5126,
            "count" : 1650,
            "type" : "VEC2"
        },
        {
            "bufferView" : 7,
            "componentType" : 5123,
            "count" : 9216,
            "type" : "SCALAR"
        }
    ],
    "bufferViews" : [
        {
            "buffer" : 0,
            "byteLength" : 19800,
            "byteOffset" : 0
        },
        {
            "buffer" : 0,
            "byteLength" : 19800,
            "byteOffset" : 19800
        },
        {
            "buffer" : 0,
            "byteLength" : 13200,
            "byteOffset" : 39600
        },
        {
            "buffer" : 0,
            "byteLength" : 18432,
            "byteOffset" : 52800
        },
        {
            "buffer" : 0,
            "byteLength" : 19800,
            "byteOffset" : 71232
        },
        {
            "buffer" : 0,
            "byteLength" : 19800,
            "byteOffset" : 91032
        },
        {
            "buffer" : 0,
            "byteLength" : 13200,
            "byteOffset" : 110832
        },
        {
            "buffer" : 0,
            "byteLength" : 18432,
            "byteOffset" : 124032
        }
    ],
    "buffers" : [
        {
            "byteLength" : 142464,
            "uri" : "data:application/octet-stream;base64,"
        }
    ]
}
